{
    "asset" : {
        "generator" : "Khronos glTF Blender I/O v1.6.16",
        "version" : "2.0"
    },
    "scene" : 0,
    "scenes" : [
        {
            "name" : "Scene",
            "nodes" : [
                0,
                1,
                2
            ]
        }
    ],
    "nodes" : [
        {
            "mesh" : 0,
            "name" : "Cube",
            "scale" : [
                0.13219337165355682,
                0.60270094871521,
                0.60270094871521
            ],
            "translation" : [
                0.0013437587767839432,
                -0.1996830403804779,
                0.08866791427135468
            ]
        },
        {
            "mesh" : 1,
            "name" : "Cube.001",
            "scale" : [
                0.11723088473081589,
                0.60270094871521,
                0.60270094871521
            ],
            "translation" : [
                0.0013171620666980743,
                -0.7508412599563599,
                0.49219441413879395
            ]
        },
        {
            "mesh" : 2,
            "name" : "Cube.002",
            "scale" : [
                0.09892905503511429,
                0.60270094871521,
                0.60270094871521
            ],
            "translation" : [
                0.00198444165289402,
                -0.5572797656059265,
                0.08866791427135468
            ]
        }
    ],
    "materials" : [
        {
            "doubleSided" : true,
            "name" : "Material",
            "pbrMetallicRoughness" : {
                "metallicFactor" : 0,
                "roughnessFactor" : 0.4000000059604645
            }
        },
        {
            "doubleSided" : true,
            "name" : "Material.002",
            "pbrMetallicRoughness" : {
                "metallicFactor" : 0,
                "roughnessFactor" : 0.5
            }
        },
        {
            "doubleSided" : true,
            "name" : "Material.003",
            "pbrMetallicRoughness" : {
                "metallicFactor" : 0,
                "roughnessFactor" : 0.5
            }
        }
    ],
    "meshes" : [
        {
            "name" : "Cube",
            "primitives" : [
                {
                    "attributes" : {
                        "POSITION" : 0,
                        "NORMAL" : 1,
                        "TEXCOORD_0" : 2
                    },
                    "indices" : 3,
                    "material" : 0
                }
            ]
        },
        {
            "name" : "Cube.001",
            "primitives" : [
                {
                    "attributes" : {
                        "POSITION" : 4,
                        "NORMAL" : 5,
                        "TEXCOORD_0" : 6
                    },
                    "indices" : 7,
                    "material" : 1
                }
            ]
        },
        {
            "name" : "Cube.002",
            "primitives" : [
                {
                    "attributes" : {
                        "POSITION" : 8,
                        "NORMAL" : 9,
                        "TEXCOORD_0" : 10
                    },
                    "indices" : 11,
                    "material" : 2
                }
            ]
        }
    ],
    "accessors" : [
        {
            "bufferView" : 0,
            "componentType" : 5126,
            "count" : 62,
            "max" : [
                1,
                1.7348504066467285,
                1.3739778995513916
            ],
            "min" : [
                -1,
                -2.5078041553497314,
                -1.6933186054229736
            ],
            "type" : "VEC3"
        },
        {
            "bufferView" : 1,
            "componentType" : 5126,
            "count" : 62,
            "type" : "VEC3"
        },
        {
            "bufferView" : 2,
            "componentType" : 5126,
            "count" : 62,
            "type" : "VEC2"
        },
        {
            "bufferView" : 3,
            "componentType" : 5123,
            "count" : 108,
            "type" : "SCALAR"
        },
        {
            "bufferView" : 4,
            "componentType" : 5126,
            "count" : 38,
            "max" : [
                1,
                1.9090371131896973,
                1
            ],
            "min" : [
                -1,
                -1.070763349533081,
                -0.3740164041519165
            ],
            "type" : "VEC3"
        },
        {
            "bufferView" : 5,
            "componentType" : 5126,
            "count" : 38,
            "type" : "VEC3"
        },
        {
            "bufferView" : 6,
            "componentType" : 5126,
            "count" : 38,
            "type" : "VEC2"
        },
        {
            "bufferView" : 7,
            "componentType" : 5123,
            "count" : 60,
            "type" : "SCALAR"
        },
        {
            "bufferView" : 8,
            "componentType" : 5126,
            "count" : 50,
            "max" : [
                1,
                3.117457628250122,
                0.9782266616821289
            ],
            "min" : [
                -1,
                -1.0381033420562744,
                -0.7550498843193054
            ],
            "type" : "VEC3"
        },
        {
            "bufferView" : 9,
            "componentType" : 5126,
            "count" : 50,
            "type" : "VEC3"
        },
        {
            "bufferView" : 10,
            "componentType" : 5126,
            "count" : 50,
            "type" : "VEC2"
        },
        {
            "bufferView" : 11,
            "componentType" : 5123,
            "count" : 84,
            "type" : "SCALAR"
        }
    ],
    "bufferViews" : [
        {
            "buffer" : 0,
            "byteLength" : 744,
            "byteOffset" : 0
        },
        {
            "buffer" : 0,
            "byteLength" : 744,
            "byteOffset" : 744
        },
        {
            "buffer" : 0,
            "byteLength" : 496,
            "byteOffset" : 1488
        },
        {
            "buffer" : 0,
            "byteLength" : 216,
            "byteOffset" : 1984
        },
        {
            "buffer" : 0,
            "byteLength" : 456,
            "byteOffset" : 2200
        },
        {
            "buffer" : 0,
            "byteLength" : 456,
            "byteOffset" : 2656
        },
        {
            "buffer" : 0,
            "byteLength" : 304,
            "byteOffset" : 3112
        },
        {
            "buffer" : 0,
            "byteLength" : 120,
            "byteOffset" : 3416
        },
        {
            "buffer" : 0,
            "byteLength" : 600,
            "byteOffset" : 3536
        },
        {
            "buffer" : 0,
            "byteLength" : 600,
            "byteOffset" : 4136
        },
        {
            "buffer" : 0,
            "byteLength" : 400,
            "byteOffset" : 4736
        },
        {
            "buffer" : 0,
            "byteLength" : 168,
            "byteOffset" : 5136
        }
    ],
    "buffers" : [
        {
            "byteLength" : 5304,
            "uri" : "data:application/octet-stream;base64,"
        }
    ]
}
