<?xml version="1.0" encoding="UTF-8" standalone="no"?>
<!-- Created with Inkscape (http://www.inkscape.org/) -->

<svg
   width="200mm"
   height="200mm"
   viewBox="0 0 200 200"
   version="1.1"
   id="svg5"
   xmlns:xlink="http://www.w3.org/1999/xlink"
   xmlns="http://www.w3.org/2000/svg"
   xmlns:svg="http://www.w3.org/2000/svg">
  <defs
     id="defs2">
    <linearGradient
       id="linearGradient3839">
      <stop
         style="stop-color:#313131;stop-opacity:1"
         offset="0"
         id="stop3835" />
      <stop
         style="stop-color:#1b1b1b;stop-opacity:1"
         offset="1"
         id="stop3837" />
    </linearGradient>
    <linearGradient
       id="linearGradient932">
      <stop
         style="stop-color:#ff0000;stop-opacity:1"
         offset="0"
         id="stop928" />
      <stop
         style="stop-color:#ffd000;stop-opacity:1"
         offset="1"
         id="stop930" />
    </linearGradient>
    <linearGradient
       xlink:href="#linearGradient932"
       id="linearGradient2611"
       gradientUnits="userSpaceOnUse"
       gradientTransform="matrix(1.1747571,0,0,1.1747571,281.24215,62.293466)"
       x1="19.001381"
       y1="106.15994"
       x2="189.18774"
       y2="106.15994" />
    <linearGradient
       xlink:href="#linearGradient932"
       id="linearGradient2748"
       gradientUnits="userSpaceOnUse"
       gradientTransform="matrix(1.1747571,0,0,1.1747571,-22.528561,-24.748527)"
       x1="19.001381"
       y1="106.15994"
       x2="189.18774"
       y2="106.15994" />
    <linearGradient
       xlink:href="#linearGradient3839"
       id="linearGradient3841"
       x1="100.58348"
       y1="200"
       x2="99.757217"
       y2="0"
       gradientUnits="userSpaceOnUse"
       gradientTransform="scale(3.7795276)" />
    <linearGradient
       xlink:href="#linearGradient932"
       id="linearGradient839"
       gradientUnits="userSpaceOnUse"
       gradientTransform="matrix(1.1747571,0,0,1.1747571,-22.508924,-24.748518)"
       x1="19.001381"
       y1="106.15994"
       x2="189.18774"
       y2="106.15994" />
    <linearGradient
       xlink:href="#linearGradient3839"
       id="linearGradient850"
       gradientUnits="userSpaceOnUse"
       gradientTransform="scale(3.7795276)"
       x1="100.58348"
       y1="200"
       x2="99.757217"
       y2="0" />
    <linearGradient
       xlink:href="#linearGradient932"
       id="linearGradient852"
       gradientUnits="userSpaceOnUse"
       gradientTransform="matrix(1.1747571,0,0,1.1747571,-22.508924,-24.748518)"
       x1="19.001381"
       y1="106.15994"
       x2="189.18774"
       y2="106.15994" />
  </defs>
  <path
     id="path1546"
     style="fill:url(#linearGradient3841);fill-opacity:1;stroke-width:0.630486;stroke-linecap:round;stroke-linejoin:round;paint-order:markers fill stroke"
     d="M 377 0.001953125 A 377.81604 377.81604 0 0 0 -0.78125 377.81445 A 377.81604 377.81604 0 0 0 377.03516 755.63086 A 377.81604 377.81604 0 0 0 754.08203 398.35352 A 377.81604 377.81604 0 0 1 752.03906 421.28906 L 724.38281 421.1582 A 350.30516 350.30516 0 0 1 377.03516 728.11914 A 350.30516 350.30516 0 0 1 26.730469 377.81445 A 350.30516 350.30516 0 0 1 377 27.511719 L 377 0.001953125 z M 402.46094 0.95117188 A 377.81604 377.81604 0 0 1 409.92969 1.5820312 A 377.81604 377.81604 0 0 0 402.46094 0.95117188 z M 428.65234 3.6894531 A 377.81604 377.81604 0 0 1 436.13672 4.7460938 A 377.81604 377.81604 0 0 0 428.65234 3.6894531 z M 485.66992 16.054688 A 377.81604 377.81604 0 0 1 492.83203 18.335938 A 377.81604 377.81604 0 0 0 485.66992 16.054688 z M 510.63867 24.568359 A 377.81604 377.81604 0 0 1 517.6543 27.246094 A 377.81604 377.81604 0 0 0 510.63867 24.568359 z M 377.03516 27.509766 A 350.30516 350.30516 0 0 1 401.72852 28.480469 A 350.30516 350.30516 0 0 0 377.03516 27.509766 z M 408.88672 29.107422 A 350.30516 350.30516 0 0 1 427.39844 31.298828 A 350.30516 350.30516 0 0 0 408.88672 29.107422 z M 434.20898 32.296875 A 350.30516 350.30516 0 0 1 458.38477 37.105469 A 350.30516 350.30516 0 0 0 434.20898 32.296875 z M 540.78906 37.337891 A 377.81604 377.81604 0 0 1 541.12695 37.5 A 377.81604 377.81604 0 0 0 540.78906 37.337891 z M 460.89648 37.777344 A 350.30516 350.30516 0 0 1 482.26367 43.804688 A 350.30516 350.30516 0 0 0 460.89648 37.777344 z M 489.26367 46.123047 A 350.30516 350.30516 0 0 1 506.90234 52.630859 A 350.30516 350.30516 0 0 0 489.26367 46.123047 z M 563.42383 49.285156 A 377.81604 377.81604 0 0 1 569.96484 53.144531 A 377.81604 377.81604 0 0 0 563.42383 49.285156 z M 512.94531 55.03125 A 350.30516 350.30516 0 0 1 535.29688 65.333984 A 350.30516 350.30516 0 0 0 512.94531 55.03125 z M 585.83398 63.115234 A 377.81604 377.81604 0 0 1 592.16406 67.34375 A 377.81604 377.81604 0 0 0 585.83398 63.115234 z M 538.9668 67.3125 A 350.30516 350.30516 0 0 1 557.05078 77.441406 A 350.30516 350.30516 0 0 0 538.9668 67.3125 z M 563.40234 81.359375 A 350.30516 350.30516 0 0 1 579.34961 92.013672 A 350.30516 350.30516 0 0 0 563.40234 81.359375 z M 584.24414 95.441406 A 350.30516 350.30516 0 0 1 603.56445 110.67383 A 350.30516 350.30516 0 0 0 584.24414 95.441406 z M 631.87891 99.017578 A 377.81604 377.81604 0 0 1 637.33008 104.17188 A 377.81604 377.81604 0 0 0 631.87891 99.017578 z M 607.42188 114.10547 A 350.30516 350.30516 0 0 1 621.98242 127.56641 A 350.30516 350.30516 0 0 0 607.42188 114.10547 z M 650.67773 117.51953 A 377.81604 377.81604 0 0 1 655.83594 122.97656 A 377.81604 377.81604 0 0 0 650.67773 117.51953 z M 627.27734 132.85938 A 350.30516 350.30516 0 0 1 640.75977 147.44531 A 350.30516 350.30516 0 0 0 627.27734 132.85938 z M 644.17383 151.2832 A 350.30516 350.30516 0 0 1 659.41992 170.62109 A 350.30516 350.30516 0 0 0 644.17383 151.2832 z M 687.52148 162.70703 A 377.81604 377.81604 0 0 1 691.70703 168.9707 A 377.81604 377.81604 0 0 0 687.52148 162.70703 z M 662.8125 175.4668 A 350.30516 350.30516 0 0 1 673.49219 191.45117 A 350.30516 350.30516 0 0 0 662.8125 175.4668 z M 701.71484 184.89844 A 377.81604 377.81604 0 0 1 705.56445 191.42188 A 377.81604 377.81604 0 0 0 701.71484 184.89844 z M 677.4082 197.79883 A 350.30516 350.30516 0 0 1 687.53711 215.88281 A 350.30516 350.30516 0 0 0 677.4082 197.79883 z M 689.51562 219.55273 A 350.30516 350.30516 0 0 1 699.81836 241.9043 A 350.30516 350.30516 0 0 0 689.51562 219.55273 z M 727.60352 237.19141 A 377.81604 377.81604 0 0 1 730.29492 244.24414 A 377.81604 377.81604 0 0 0 727.60352 237.19141 z M 702.21875 247.94727 A 350.30516 350.30516 0 0 1 708.72656 265.58594 A 350.30516 350.30516 0 0 0 702.21875 247.94727 z M 736.50195 261.98242 A 377.81604 377.81604 0 0 1 738.79883 269.1875 A 377.81604 377.81604 0 0 0 736.50195 261.98242 z M 711.04492 272.58398 A 350.30516 350.30516 0 0 1 717.08203 293.98828 A 350.30516 350.30516 0 0 0 711.04492 272.58398 z M 717.74414 296.45898 A 350.30516 350.30516 0 0 1 722.54883 320.60742 A 350.30516 350.30516 0 0 0 717.74414 296.45898 z M 750.10547 318.71289 A 377.81604 377.81604 0 0 1 751.16211 326.19727 A 377.81604 377.81604 0 0 0 750.10547 318.71289 z M 723.55859 327.50781 A 350.30516 350.30516 0 0 1 725.74219 345.95312 A 350.30516 350.30516 0 0 0 723.55859 327.50781 z M 753.26953 344.91992 A 377.81604 377.81604 0 0 1 753.90039 352.38867 A 377.81604 377.81604 0 0 0 753.26953 344.91992 z M 726.36914 353.12109 A 350.30516 350.30516 0 0 1 727.33984 377.81445 A 350.30516 350.30516 0 0 0 726.36914 353.12109 z M 727.33984 377.81445 A 350.30516 350.30516 0 0 1 726.56836 397.42188 A 350.30516 350.30516 0 0 0 727.33984 377.81445 z "
     transform="scale(0.26458333)" />
  <path
     id="path2609"
     style="fill:url(#linearGradient2611);fill-opacity:1;stroke-width:0.166816;stroke-linecap:round;stroke-linejoin:round;paint-order:markers fill stroke"
     d="m 403.52781,87.041993 a 99.963826,99.963826 0 0 0 -99.9636,99.963607 99.963826,99.963826 0 0 0 99.9636,99.9636 99.963826,99.963826 0 0 0 99.96422,-99.9636 99.963826,99.963826 0 0 0 -99.96422,-99.963607 z m 0,7.278801 a 92.684906,92.684906 0 0 1 92.68481,92.684806 92.684906,92.684906 0 0 1 -92.68481,92.6848 92.684906,92.684906 0 0 1 -92.6848,-92.6848 92.684906,92.684906 0 0 1 92.6848,-92.684806 z" />
  <path
     id="path837"
     style="fill:url(#linearGradient839);fill-opacity:1;stroke-width:0.166816;stroke-linecap:round;stroke-linejoin:round;paint-order:markers fill stroke"
     d="m 99.776856,9.012806e-6 a 99.963826,99.963826 0 0 0 -0.009,5.17000004e-4 V 7.279151 a 92.684906,92.684906 0 0 1 0.009,-5.29e-4 92.684906,92.684906 0 0 1 92.684784,92.68478 92.684906,92.684906 0 0 1 -0.80202,11.468038 l 7.33702,0.0346 A 99.963826,99.963826 0 0 0 199.74079,99.963402 99.963826,99.963826 0 0 0 99.776856,9.012806e-6 Z" />
  <g
     id="g848"
     transform="matrix(0.93739033,0,0,0.93739033,6.2463826,6.2586934)">
    <path
       id="path842"
       style="fill:url(#linearGradient850);fill-opacity:1;stroke-width:0.630486;stroke-linecap:round;stroke-linejoin:round;paint-order:markers fill stroke"
       d="M 377,0.00195313 A 377.81604,377.81604 0 0 0 -0.78125,377.81445 377.81604,377.81604 0 0 0 377.03516,755.63086 377.81604,377.81604 0 0 0 754.08203,398.35352 377.81604,377.81604 0 0 1 752.03906,421.28906 L 724.38281,421.1582 A 350.30516,350.30516 0 0 1 377.03516,728.11914 350.30516,350.30516 0 0 1 26.730469,377.81445 350.30516,350.30516 0 0 1 377,27.511719 Z m 25.46094,0.94921875 a 377.81604,377.81604 0 0 1 7.46875,0.63085932 377.81604,377.81604 0 0 0 -7.46875,-0.63085932 z m 26.1914,2.73828122 a 377.81604,377.81604 0 0 1 7.48438,1.0566407 377.81604,377.81604 0 0 0 -7.48438,-1.0566407 z m 57.01758,12.3652349 a 377.81604,377.81604 0 0 1 7.16211,2.28125 377.81604,377.81604 0 0 0 -7.16211,-2.28125 z m 24.96875,8.513671 a 377.81604,377.81604 0 0 1 7.01563,2.677735 377.81604,377.81604 0 0 0 -7.01563,-2.677735 z m -133.60351,2.941407 a 350.30516,350.30516 0 0 1 24.69336,0.970703 350.30516,350.30516 0 0 0 -24.69336,-0.970703 z m 31.85156,1.597656 a 350.30516,350.30516 0 0 1 18.51172,2.191406 350.30516,350.30516 0 0 0 -18.51172,-2.191406 z m 25.32226,3.189453 a 350.30516,350.30516 0 0 1 24.17579,4.808594 350.30516,350.30516 0 0 0 -24.17579,-4.808594 z m 106.58008,5.041016 A 377.81604,377.81604 0 0 1 541.12695,37.5 377.81604,377.81604 0 0 0 540.78906,37.337891 Z m -79.89258,0.439453 a 350.30516,350.30516 0 0 1 21.36719,6.027344 350.30516,350.30516 0 0 0 -21.36719,-6.027344 z m 28.36719,8.345703 a 350.30516,350.30516 0 0 1 17.63867,6.507812 350.30516,350.30516 0 0 0 -17.63867,-6.507812 z m 74.16016,3.162109 a 377.81604,377.81604 0 0 1 6.54101,3.859375 377.81604,377.81604 0 0 0 -6.54101,-3.859375 z M 512.94531,55.03125 A 350.30516,350.30516 0 0 1 535.29688,65.333984 350.30516,350.30516 0 0 0 512.94531,55.03125 Z m 72.88867,8.083984 a 377.81604,377.81604 0 0 1 6.33008,4.228516 377.81604,377.81604 0 0 0 -6.33008,-4.228516 z M 538.9668,67.3125 A 350.30516,350.30516 0 0 1 557.05078,77.441406 350.30516,350.30516 0 0 0 538.9668,67.3125 Z m 24.43554,14.046875 a 350.30516,350.30516 0 0 1 15.94727,10.654297 350.30516,350.30516 0 0 0 -15.94727,-10.654297 z m 20.8418,14.082031 a 350.30516,350.30516 0 0 1 19.32031,15.232424 350.30516,350.30516 0 0 0 -19.32031,-15.232424 z m 47.63477,3.576172 a 377.81604,377.81604 0 0 1 5.45117,5.154302 377.81604,377.81604 0 0 0 -5.45117,-5.154302 z m -24.45703,15.087892 a 350.30516,350.30516 0 0 1 14.56054,13.46094 350.30516,350.30516 0 0 0 -14.56054,-13.46094 z m 43.25585,3.41406 a 377.81604,377.81604 0 0 1 5.15821,5.45703 377.81604,377.81604 0 0 0 -5.15821,-5.45703 z m -23.40039,15.33985 a 350.30516,350.30516 0 0 1 13.48243,14.58593 350.30516,350.30516 0 0 0 -13.48243,-14.58593 z m 16.89649,18.42382 a 350.30516,350.30516 0 0 1 15.24609,19.33789 350.30516,350.30516 0 0 0 -15.24609,-19.33789 z m 43.34765,11.42383 a 377.81604,377.81604 0 0 1 4.18555,6.26367 377.81604,377.81604 0 0 0 -4.18555,-6.26367 z M 662.8125,175.4668 a 350.30516,350.30516 0 0 1 10.67969,15.98437 350.30516,350.30516 0 0 0 -10.67969,-15.98437 z m 38.90234,9.43164 a 377.81604,377.81604 0 0 1 3.84961,6.52344 377.81604,377.81604 0 0 0 -3.84961,-6.52344 z m -24.30664,12.90039 a 350.30516,350.30516 0 0 1 10.12891,18.08398 350.30516,350.30516 0 0 0 -10.12891,-18.08398 z m 12.10742,21.7539 a 350.30516,350.30516 0 0 1 10.30274,22.35157 350.30516,350.30516 0 0 0 -10.30274,-22.35157 z m 38.0879,17.63868 a 377.81604,377.81604 0 0 1 2.6914,7.05273 377.81604,377.81604 0 0 0 -2.6914,-7.05273 z m -25.38477,10.75586 a 350.30516,350.30516 0 0 1 6.50781,17.63867 350.30516,350.30516 0 0 0 -6.50781,-17.63867 z m 34.2832,14.03515 a 377.81604,377.81604 0 0 1 2.29688,7.20508 377.81604,377.81604 0 0 0 -2.29688,-7.20508 z m -25.45703,10.60156 a 350.30516,350.30516 0 0 1 6.03711,21.4043 350.30516,350.30516 0 0 0 -6.03711,-21.4043 z m 6.69922,23.875 a 350.30516,350.30516 0 0 1 4.80469,24.14844 350.30516,350.30516 0 0 0 -4.80469,-24.14844 z m 32.36133,22.25391 a 377.81604,377.81604 0 0 1 1.05664,7.48438 377.81604,377.81604 0 0 0 -1.05664,-7.48438 z m -26.54688,8.79492 a 350.30516,350.30516 0 0 1 2.1836,18.44531 350.30516,350.30516 0 0 0 -2.1836,-18.44531 z m 29.71094,17.41211 a 377.81604,377.81604 0 0 1 0.63086,7.46875 377.81604,377.81604 0 0 0 -0.63086,-7.46875 z m -26.90039,8.20117 a 350.30516,350.30516 0 0 1 0.9707,24.69336 350.30516,350.30516 0 0 0 -0.9707,-24.69336 z m 0.9707,24.69336 a 350.30516,350.30516 0 0 1 -0.77148,19.60743 350.30516,350.30516 0 0 0 0.77148,-19.60743 z"
       transform="scale(0.26458333)" />
    <path
       id="path844"
       style="fill:url(#linearGradient852);fill-opacity:1;stroke-width:0.166816;stroke-linecap:round;stroke-linejoin:round;paint-order:markers fill stroke"
       d="m 99.776856,9.012806e-6 a 99.963826,99.963826 0 0 0 -0.009,5.17000004e-4 V 7.279151 a 92.684906,92.684906 0 0 1 0.009,-5.29e-4 92.684906,92.684906 0 0 1 92.684784,92.68478 92.684906,92.684906 0 0 1 -0.80202,11.468038 l 7.33702,0.0346 A 99.963826,99.963826 0 0 0 199.74079,99.963402 99.963826,99.963826 0 0 0 99.776856,9.012806e-6 Z" />
  </g>
</svg>
