<?xml version="1.0" encoding="UTF-8" standalone="no"?>
<!-- Created with Inkscape (http://www.inkscape.org/) -->

<svg
   width="200mm"
   height="200mm"
   viewBox="0 0 200 200"
   version="1.1"
   id="svg5"
   xmlns:xlink="http://www.w3.org/1999/xlink"
   xmlns="http://www.w3.org/2000/svg"
   xmlns:svg="http://www.w3.org/2000/svg">
  <defs
     id="defs2">
    <linearGradient
       id="linearGradient3839">
      <stop
         style="stop-color:#313131;stop-opacity:1"
         offset="0"
         id="stop3835" />
      <stop
         style="stop-color:#1b1b1b;stop-opacity:1"
         offset="1"
         id="stop3837" />
    </linearGradient>
    <linearGradient
       id="linearGradient932">
      <stop
         style="stop-color:#ff0000;stop-opacity:1"
         offset="0"
         id="stop928" />
      <stop
         style="stop-color:#ffd000;stop-opacity:1"
         offset="1"
         id="stop930" />
    </linearGradient>
    <linearGradient
       xlink:href="#linearGradient932"
       id="linearGradient2611"
       gradientUnits="userSpaceOnUse"
       gradientTransform="matrix(1.1747571,0,0,1.1747571,281.24215,62.293466)"
       x1="19.001381"
       y1="106.15994"
       x2="189.18774"
       y2="106.15994" />
    <linearGradient
       xlink:href="#linearGradient932"
       id="linearGradient2748"
       gradientUnits="userSpaceOnUse"
       gradientTransform="matrix(1.1747571,0,0,1.1747571,47.280897,-51.185245)"
       x1="19.001381"
       y1="106.15994"
       x2="189.18774"
       y2="106.15994" />
    <linearGradient
       xlink:href="#linearGradient3839"
       id="linearGradient3841"
       x1="100.58348"
       y1="200"
       x2="99.757217"
       y2="0"
       gradientUnits="userSpaceOnUse"
       gradientTransform="scale(3.7795276)" />
    <linearGradient
       xlink:href="#linearGradient932"
       id="linearGradient4717"
       gradientUnits="userSpaceOnUse"
       gradientTransform="matrix(1.1747571,0,0,1.1747571,-22.52856,-24.748527)"
       x1="19.001381"
       y1="106.15994"
       x2="189.18774"
       y2="106.15994" />
    <linearGradient
       xlink:href="#linearGradient932"
       id="linearGradient842"
       gradientUnits="userSpaceOnUse"
       gradientTransform="matrix(1.1747571,0,0,1.1747571,-22.528562,-24.748527)"
       x1="19.001381"
       y1="106.15994"
       x2="189.18774"
       y2="106.15994" />
    <linearGradient
       xlink:href="#linearGradient3839"
       id="linearGradient855"
       gradientUnits="userSpaceOnUse"
       gradientTransform="scale(3.7795276)"
       x1="100.58348"
       y1="200"
       x2="99.757217"
       y2="0" />
    <linearGradient
       xlink:href="#linearGradient932"
       id="linearGradient857"
       gradientUnits="userSpaceOnUse"
       gradientTransform="matrix(1.1747571,0,0,1.1747571,-22.528562,-24.748527)"
       x1="19.001381"
       y1="106.15994"
       x2="189.18774"
       y2="106.15994" />
  </defs>
  <path
     id="path2609"
     style="fill:url(#linearGradient2611);fill-opacity:1;stroke-width:0.166816;stroke-linecap:round;stroke-linejoin:round;paint-order:markers fill stroke"
     d="m 403.52781,87.041993 a 99.963826,99.963826 0 0 0 -99.9636,99.963607 99.963826,99.963826 0 0 0 99.9636,99.9636 99.963826,99.963826 0 0 0 99.96422,-99.9636 99.963826,99.963826 0 0 0 -99.96422,-99.963607 z m 0,7.278801 a 92.684906,92.684906 0 0 1 92.68481,92.684806 92.684906,92.684906 0 0 1 -92.68481,92.6848 92.684906,92.684906 0 0 1 -92.6848,-92.6848 92.684906,92.684906 0 0 1 92.6848,-92.684806 z" />
  <path
     id="path2613"
     style="fill:url(#linearGradient2748);fill-opacity:1;stroke-width:0.166816;stroke-linecap:round;stroke-linejoin:round;paint-order:markers fill stroke"
     d="m 169.56668,-26.436718 a 99.963826,99.963826 0 0 0 -0.009,5.17e-4 v 7.278626 a 92.684906,92.684906 0 0 1 0.009,-5.17e-4 92.684906,92.684906 0 0 1 92.68477,92.68478 92.684906,92.684906 0 0 1 -0.80201,11.468033 l 7.33702,0.03462 a 99.963826,99.963826 0 0 0 0.74414,-11.502657 99.963826,99.963826 0 0 0 -99.96392,-99.963406 z" />
  <g
     id="g847">
    <path
       id="path1546"
       style="fill:url(#linearGradient3841);fill-opacity:1;stroke-width:0.630486;stroke-linecap:round;stroke-linejoin:round;paint-order:markers fill stroke"
       d="M 377.03516 0 A 377.81604 377.81604 0 0 0 -0.78125 377.81445 A 377.81604 377.81604 0 0 0 17.888672 494.55859 L 43.890625 486.10547 A 350.30516 350.30516 0 0 1 26.730469 377.81445 A 350.30516 350.30516 0 0 1 377.03516 27.509766 L 377.03516 0 z M 17.888672 494.55859 A 377.81604 377.81604 0 0 0 321.4043 751.48633 A 377.81604 377.81604 0 0 1 17.888672 494.55859 z M 321.4043 751.48633 A 377.81604 377.81604 0 0 0 377.03516 755.63086 A 377.81604 377.81604 0 0 1 321.4043 751.48633 z M 405.26953 1.0566406 A 377.81604 377.81604 0 0 1 461.10742 9.4726562 A 377.81604 377.81604 0 0 0 405.26953 1.0566406 z M 515.06641 26.117188 A 377.81604 377.81604 0 0 1 565.94336 50.617188 A 377.81604 377.81604 0 0 0 515.06641 26.117188 z M 404.51953 28.589844 A 350.30516 350.30516 0 0 1 458.8125 37.189453 A 350.30516 350.30516 0 0 0 404.51953 28.589844 z M 458.8125 37.189453 A 350.30516 350.30516 0 0 1 511.08984 54.175781 A 350.30516 350.30516 0 0 0 458.8125 37.189453 z M 604.53906 111.44141 A 350.30516 350.30516 0 0 1 624.73828 130.11328 A 350.30516 350.30516 0 0 0 604.53906 111.44141 z M 689.20117 164.98438 A 377.81604 377.81604 0 0 1 717.43555 213.88672 A 377.81604 377.81604 0 0 0 689.20117 164.98438 z M 700.67383 243.75977 A 350.30516 350.30516 0 0 1 717.66016 296.03711 A 350.30516 350.30516 0 0 0 700.67383 243.75977 z M 745.37891 293.74219 A 377.81604 377.81604 0 0 1 753.79492 349.58008 A 377.81604 377.81604 0 0 0 745.37891 293.74219 z M 753.80078 405.87695 A 377.81604 377.81604 0 0 1 753.78516 406.14062 A 377.81604 377.81604 0 0 0 753.80078 405.87695 z M 750.68359 433.67969 A 377.81604 377.81604 0 0 1 750.58594 434.37695 A 377.81604 377.81604 0 0 0 750.68359 433.67969 z M 717.66016 459.5918 A 350.30516 350.30516 0 0 1 700.67383 511.87109 A 350.30516 350.30516 0 0 0 717.66016 459.5918 z M 745.47852 461.36523 A 377.81604 377.81604 0 0 1 745.29492 462.19922 A 377.81604 377.81604 0 0 0 745.47852 461.36523 z M 738.23047 488.56836 A 377.81604 377.81604 0 0 1 737.93164 489.56445 A 377.81604 377.81604 0 0 0 738.23047 488.56836 z M 728.9668 515.18164 A 377.81604 377.81604 0 0 1 728.53711 516.29883 A 377.81604 377.81604 0 0 0 728.9668 515.18164 z M 717.74219 541.04102 A 377.81604 377.81604 0 0 1 717.16602 542.25195 A 377.81604 377.81604 0 0 0 717.74219 541.04102 z M 704.61523 566.00391 A 377.81604 377.81604 0 0 1 703.88672 567.27734 A 377.81604 377.81604 0 0 0 704.61523 566.00391 z M 689.63867 589.95117 A 377.81604 377.81604 0 0 1 688.7832 591.21289 A 377.81604 377.81604 0 0 0 689.63867 589.95117 z M 672.91602 612.71289 A 377.81604 377.81604 0 0 1 671.93555 613.94531 A 377.81604 377.81604 0 0 0 672.91602 612.71289 z M 654.52734 634.17578 A 377.81604 377.81604 0 0 1 653.4375 635.35156 A 377.81604 377.81604 0 0 0 654.52734 634.17578 z M 634.57812 654.21094 A 377.81604 377.81604 0 0 1 633.39844 655.30469 A 377.81604 377.81604 0 0 0 634.57812 654.21094 z M 613.16602 672.71484 A 377.81604 377.81604 0 0 1 611.93359 673.69531 A 377.81604 377.81604 0 0 0 613.16602 672.71484 z M 590.43359 689.5625 A 377.81604 377.81604 0 0 1 589.17188 690.41797 A 377.81604 377.81604 0 0 0 590.43359 689.5625 z M 566.49219 704.66992 A 377.81604 377.81604 0 0 1 565.2207 705.39648 A 377.81604 377.81604 0 0 0 566.49219 704.66992 z M 541.46289 717.95117 A 377.81604 377.81604 0 0 1 540.26562 718.51953 A 377.81604 377.81604 0 0 0 541.46289 717.95117 z M 515.53125 729.31055 A 377.81604 377.81604 0 0 1 514.38867 729.75 A 377.81604 377.81604 0 0 0 515.53125 729.31055 z M 488.77539 738.71484 A 377.81604 377.81604 0 0 1 487.80273 739.00586 A 377.81604 377.81604 0 0 0 488.77539 738.71484 z M 461.41797 746.07422 A 377.81604 377.81604 0 0 1 460.58984 746.25586 A 377.81604 377.81604 0 0 0 461.41797 746.07422 z M 433.55273 751.37109 A 377.81604 377.81604 0 0 1 432.97852 751.45117 A 377.81604 377.81604 0 0 0 433.55273 751.37109 z M 405.35742 754.56445 A 377.81604 377.81604 0 0 1 405.10156 754.58008 A 377.81604 377.81604 0 0 0 405.35742 754.56445 z "
       transform="scale(0.26458333)" />
    <path
       id="path840"
       style="fill:url(#linearGradient842);fill-opacity:1;stroke-width:0.166816;stroke-linecap:round;stroke-linejoin:round;paint-order:markers fill stroke"
       d="M 99.757218,-5.0419922e-7 V 7.2786255 A 92.684906,92.684906 0 0 1 192.442,99.963407 92.684906,92.684906 0 0 1 99.757218,192.64819 92.684906,92.684906 0 0 1 11.612728,128.6154 l -6.8796798,2.23656 A 99.963826,99.963826 0 0 0 99.757218,199.92733 99.963826,99.963826 0 0 0 199.72114,99.963407 99.963826,99.963826 0 0 0 99.757218,-5.0419922e-7 Z" />
  </g>
  <g
     id="g853"
     transform="matrix(0.93457362,0,0,0.93457362,6.5267538,6.5402605)">
    <path
       id="path849"
       style="fill:url(#linearGradient855);fill-opacity:1;stroke-width:0.630486;stroke-linecap:round;stroke-linejoin:round;paint-order:markers fill stroke"
       d="M 377.03516,0 A 377.81604,377.81604 0 0 0 -0.78125,377.81445 377.81604,377.81604 0 0 0 17.888672,494.55859 l 26.001953,-8.45312 A 350.30516,350.30516 0 0 1 26.730469,377.81445 350.30516,350.30516 0 0 1 377.03516,27.509766 Z M 17.888672,494.55859 A 377.81604,377.81604 0 0 0 321.4043,751.48633 377.81604,377.81604 0 0 1 17.888672,494.55859 Z M 321.4043,751.48633 a 377.81604,377.81604 0 0 0 55.63086,4.14453 377.81604,377.81604 0 0 1 -55.63086,-4.14453 z M 405.26953,1.0566406 A 377.81604,377.81604 0 0 1 461.10742,9.4726562 377.81604,377.81604 0 0 0 405.26953,1.0566406 Z M 515.06641,26.117188 a 377.81604,377.81604 0 0 1 50.87695,24.5 377.81604,377.81604 0 0 0 -50.87695,-24.5 z m -110.54688,2.472656 a 350.30516,350.30516 0 0 1 54.29297,8.599609 350.30516,350.30516 0 0 0 -54.29297,-8.599609 z m 54.29297,8.599609 A 350.30516,350.30516 0 0 1 511.08984,54.175781 350.30516,350.30516 0 0 0 458.8125,37.189453 Z m 145.72656,74.251957 a 350.30516,350.30516 0 0 1 20.19922,18.67187 350.30516,350.30516 0 0 0 -20.19922,-18.67187 z m 84.66211,53.54297 a 377.81604,377.81604 0 0 1 28.23438,48.90234 377.81604,377.81604 0 0 0 -28.23438,-48.90234 z m 11.47266,78.77539 a 350.30516,350.30516 0 0 1 16.98633,52.27734 350.30516,350.30516 0 0 0 -16.98633,-52.27734 z m 44.70508,49.98242 a 377.81604,377.81604 0 0 1 8.41601,55.83789 377.81604,377.81604 0 0 0 -8.41601,-55.83789 z m 8.42187,112.13476 a 377.81604,377.81604 0 0 1 -0.0156,0.26367 377.81604,377.81604 0 0 0 0.0156,-0.26367 z m -3.11719,27.80274 a 377.81604,377.81604 0 0 1 -0.0976,0.69726 377.81604,377.81604 0 0 0 0.0976,-0.69726 z m -33.02343,25.91211 a 350.30516,350.30516 0 0 1 -16.98633,52.27929 350.30516,350.30516 0 0 0 16.98633,-52.27929 z m 27.81836,1.77343 a 377.81604,377.81604 0 0 1 -0.1836,0.83399 377.81604,377.81604 0 0 0 0.1836,-0.83399 z m -7.24805,27.20313 a 377.81604,377.81604 0 0 1 -0.29883,0.99609 377.81604,377.81604 0 0 0 0.29883,-0.99609 z m -9.26367,26.61328 a 377.81604,377.81604 0 0 1 -0.42969,1.11719 377.81604,377.81604 0 0 0 0.42969,-1.11719 z m -11.22461,25.85938 a 377.81604,377.81604 0 0 1 -0.57617,1.21093 377.81604,377.81604 0 0 0 0.57617,-1.21093 z m -13.12696,24.96289 a 377.81604,377.81604 0 0 1 -0.72851,1.27343 377.81604,377.81604 0 0 0 0.72851,-1.27343 z m -14.97656,23.94726 a 377.81604,377.81604 0 0 1 -0.85547,1.26172 377.81604,377.81604 0 0 0 0.85547,-1.26172 z m -16.72265,22.76172 a 377.81604,377.81604 0 0 1 -0.98047,1.23242 377.81604,377.81604 0 0 0 0.98047,-1.23242 z m -18.38868,21.46289 a 377.81604,377.81604 0 0 1 -1.08984,1.17578 377.81604,377.81604 0 0 0 1.08984,-1.17578 z m -19.94922,20.03516 a 377.81604,377.81604 0 0 1 -1.17968,1.09375 377.81604,377.81604 0 0 0 1.17968,-1.09375 z m -21.4121,18.5039 a 377.81604,377.81604 0 0 1 -1.23243,0.98047 377.81604,377.81604 0 0 0 1.23243,-0.98047 z m -22.73243,16.84766 a 377.81604,377.81604 0 0 1 -1.26171,0.85547 377.81604,377.81604 0 0 0 1.26171,-0.85547 z m -23.9414,15.10742 a 377.81604,377.81604 0 0 1 -1.27149,0.72656 377.81604,377.81604 0 0 0 1.27149,-0.72656 z m -25.0293,13.28125 a 377.81604,377.81604 0 0 1 -1.19727,0.56836 377.81604,377.81604 0 0 0 1.19727,-0.56836 z m -25.93164,11.35938 a 377.81604,377.81604 0 0 1 -1.14258,0.43945 377.81604,377.81604 0 0 0 1.14258,-0.43945 z m -26.75586,9.40429 a 377.81604,377.81604 0 0 1 -0.97266,0.29102 377.81604,377.81604 0 0 0 0.97266,-0.29102 z m -27.35742,7.35938 a 377.81604,377.81604 0 0 1 -0.82813,0.18164 377.81604,377.81604 0 0 0 0.82813,-0.18164 z m -27.86524,5.29687 a 377.81604,377.81604 0 0 1 -0.57421,0.0801 377.81604,377.81604 0 0 0 0.57421,-0.0801 z m -28.19531,3.19336 a 377.81604,377.81604 0 0 1 -0.25586,0.0156 377.81604,377.81604 0 0 0 0.25586,-0.0156 z"
       transform="scale(0.26458333)" />
    <path
       id="path851"
       style="fill:url(#linearGradient857);fill-opacity:1;stroke-width:0.166816;stroke-linecap:round;stroke-linejoin:round;paint-order:markers fill stroke"
       d="M 99.757218,-5.0419922e-7 V 7.2786255 A 92.684906,92.684906 0 0 1 192.442,99.963407 92.684906,92.684906 0 0 1 99.757218,192.64819 92.684906,92.684906 0 0 1 11.612728,128.6154 l -6.8796798,2.23656 A 99.963826,99.963826 0 0 0 99.757218,199.92733 99.963826,99.963826 0 0 0 199.72114,99.963407 99.963826,99.963826 0 0 0 99.757218,-5.0419922e-7 Z" />
  </g>
</svg>
