<?xml version="1.0" encoding="UTF-8" standalone="no"?>
<!-- Created with Inkscape (http://www.inkscape.org/) -->

<svg
   width="200mm"
   height="200mm"
   viewBox="0 0 200 200"
   version="1.1"
   id="svg5"
   xmlns:xlink="http://www.w3.org/1999/xlink"
   xmlns="http://www.w3.org/2000/svg"
   xmlns:svg="http://www.w3.org/2000/svg">
  <defs
     id="defs2">
    <linearGradient
       id="linearGradient3839">
      <stop
         style="stop-color:#313131;stop-opacity:1"
         offset="0"
         id="stop3835" />
      <stop
         style="stop-color:#1b1b1b;stop-opacity:1"
         offset="1"
         id="stop3837" />
    </linearGradient>
    <linearGradient
       id="linearGradient932">
      <stop
         style="stop-color:#ff0000;stop-opacity:1"
         offset="0"
         id="stop928" />
      <stop
         style="stop-color:#ffd000;stop-opacity:1"
         offset="1"
         id="stop930" />
    </linearGradient>
    <linearGradient
       xlink:href="#linearGradient932"
       id="linearGradient2311"
       gradientUnits="userSpaceOnUse"
       gradientTransform="matrix(0.04368667,0,0,0.04368667,95.209858,95.325831)"
       x1="19.001381"
       y1="106.15994"
       x2="189.18774"
       y2="106.15994" />
    <linearGradient
       xlink:href="#linearGradient932"
       id="linearGradient2611"
       gradientUnits="userSpaceOnUse"
       gradientTransform="matrix(1.1747571,0,0,1.1747571,281.24215,62.293466)"
       x1="19.001381"
       y1="106.15994"
       x2="189.18774"
       y2="106.15994" />
    <linearGradient
       xlink:href="#linearGradient932"
       id="linearGradient2748"
       gradientUnits="userSpaceOnUse"
       gradientTransform="matrix(1.1747571,0,0,1.1747571,47.280897,-51.185245)"
       x1="19.001381"
       y1="106.15994"
       x2="189.18774"
       y2="106.15994" />
    <linearGradient
       xlink:href="#linearGradient3839"
       id="linearGradient3841"
       x1="100.58348"
       y1="200"
       x2="99.757217"
       y2="0"
       gradientUnits="userSpaceOnUse"
       gradientTransform="scale(3.7795276)" />
    <linearGradient
       xlink:href="#linearGradient932"
       id="linearGradient4717"
       gradientUnits="userSpaceOnUse"
       gradientTransform="matrix(1.1747571,0,0,1.1747571,-22.52856,-24.748527)"
       x1="19.001381"
       y1="106.15994"
       x2="189.18774"
       y2="106.15994" />
    <linearGradient
       xlink:href="#linearGradient932"
       id="linearGradient1116"
       gradientUnits="userSpaceOnUse"
       gradientTransform="matrix(1.1747571,0,0,1.1747571,-22.528562,-24.748527)"
       x1="19.001381"
       y1="106.15994"
       x2="189.18774"
       y2="106.15994" />
    <linearGradient
       xlink:href="#linearGradient932"
       id="linearGradient1123"
       gradientUnits="userSpaceOnUse"
       gradientTransform="matrix(1.0933338,0,0,1.0933338,-14.052841,-16.104629)"
       x1="19.001381"
       y1="106.15994"
       x2="189.18774"
       y2="106.15994" />
    <linearGradient
       xlink:href="#linearGradient3839"
       id="linearGradient1125"
       gradientUnits="userSpaceOnUse"
       gradientTransform="matrix(0.93068923,0,0,0.93068923,6.9142489,6.9285581)"
       x1="100.58348"
       y1="200"
       x2="99.757217"
       y2="0" />
  </defs>
  <path
     id="path1546"
     style="fill:url(#linearGradient3841);fill-opacity:1;stroke-width:0.630486;stroke-linecap:round;stroke-linejoin:round;paint-order:markers fill stroke"
     d="M 377.03516 0 A 377.81604 377.81604 0 0 0 258.50781 19.292969 L 267.08984 45.28125 A 350.30516 350.30516 0 0 1 377.03516 27.509766 L 377.03516 0 z M 405.26953 1.0566406 A 377.81604 377.81604 0 0 1 461.10742 9.4726562 A 377.81604 377.81604 0 0 0 405.26953 1.0566406 z M 253.94141 20.890625 A 377.81604 377.81604 0 0 0 233.93945 28.326172 A 377.81604 377.81604 0 0 1 253.94141 20.890625 z M 515.06641 26.117188 A 377.81604 377.81604 0 0 1 565.94336 50.617188 A 377.81604 377.81604 0 0 0 515.06641 26.117188 z M 404.51953 28.589844 A 350.30516 350.30516 0 0 1 458.8125 37.189453 A 350.30516 350.30516 0 0 0 404.51953 28.589844 z M 458.8125 37.189453 A 350.30516 350.30516 0 0 1 511.08984 54.175781 A 350.30516 350.30516 0 0 0 458.8125 37.189453 z M 227.92773 30.949219 A 377.81604 377.81604 0 0 0 208.50195 39.849609 A 377.81604 377.81604 0 0 1 227.92773 30.949219 z M 202.80273 42.861328 A 377.81604 377.81604 0 0 0 183.97852 53.224609 A 377.81604 377.81604 0 0 1 202.80273 42.861328 z M 178.60156 56.603516 A 377.81604 377.81604 0 0 0 160.54297 68.351562 A 377.81604 377.81604 0 0 1 178.60156 56.603516 z M 155.39648 72.148438 A 377.81604 377.81604 0 0 0 138.29492 85.162109 A 377.81604 377.81604 0 0 1 155.39648 72.148438 z M 133.39844 89.375 A 377.81604 377.81604 0 0 0 117.31836 103.59375 A 377.81604 377.81604 0 0 1 133.39844 89.375 z M 112.81641 108.0957 A 377.81604 377.81604 0 0 0 97.78125 123.50391 A 377.81604 377.81604 0 0 1 112.81641 108.0957 z M 604.53906 111.44141 A 350.30516 350.30516 0 0 1 624.73828 130.11328 A 350.30516 350.30516 0 0 0 604.53906 111.44141 z M 93.576172 128.39062 A 377.81604 377.81604 0 0 0 79.775391 144.78711 A 377.81604 377.81604 0 0 1 93.576172 128.39062 z M 75.841797 150.11719 A 377.81604 377.81604 0 0 0 63.380859 167.35352 A 377.81604 377.81604 0 0 1 75.841797 150.11719 z M 689.20117 164.98438 A 377.81604 377.81604 0 0 1 717.43555 213.88672 A 377.81604 377.81604 0 0 0 689.20117 164.98438 z M 59.773438 173.09375 A 377.81604 377.81604 0 0 0 48.701172 191.05859 A 377.81604 377.81604 0 0 1 59.773438 173.09375 z M 45.441406 197.22461 A 377.81604 377.81604 0 0 0 35.796875 215.80859 A 377.81604 377.81604 0 0 1 45.441406 197.22461 z M 32.976562 222.27148 A 377.81604 377.81604 0 0 0 24.759766 241.42969 A 377.81604 377.81604 0 0 1 32.976562 222.27148 z M 700.67383 243.75977 A 350.30516 350.30516 0 0 1 717.66016 296.03711 A 350.30516 350.30516 0 0 0 700.67383 243.75977 z M 22.3125 248.42578 A 377.81604 377.81604 0 0 0 15.648438 267.78516 A 377.81604 377.81604 0 0 1 22.3125 248.42578 z M 13.611328 275.38672 A 377.81604 377.81604 0 0 0 8.4960938 294.78125 A 377.81604 377.81604 0 0 1 13.611328 275.38672 z M 745.37891 293.74219 A 377.81604 377.81604 0 0 1 753.79492 349.58008 A 377.81604 377.81604 0 0 0 745.37891 293.74219 z M 6.9394531 303.00781 A 377.81604 377.81604 0 0 0 3.3632812 322.17578 A 377.81604 377.81604 0 0 1 6.9394531 303.00781 z M 2.1191406 333.2168 A 377.81604 377.81604 0 0 0 0.26367188 349.91602 A 377.81604 377.81604 0 0 1 2.1191406 333.2168 z M 753.81055 405.65625 A 377.81604 377.81604 0 0 1 753.76953 406.27148 A 377.81604 377.81604 0 0 0 753.81055 405.65625 z M 750.70898 433.45312 A 377.81604 377.81604 0 0 1 750.55078 434.55469 A 377.81604 377.81604 0 0 0 750.70898 433.45312 z M 717.66016 459.5918 A 350.30516 350.30516 0 0 1 700.67383 511.87109 A 350.30516 350.30516 0 0 0 717.66016 459.5918 z M 745.5293 461.0918 A 377.81604 377.81604 0 0 1 745.22266 462.4707 A 377.81604 377.81604 0 0 0 745.5293 461.0918 z M 738.29102 488.33594 A 377.81604 377.81604 0 0 1 737.82422 489.87109 A 377.81604 377.81604 0 0 0 738.29102 488.33594 z M 729.01758 515.03906 A 377.81604 377.81604 0 0 1 728.40234 516.60742 A 377.81604 377.81604 0 0 0 729.01758 515.03906 z M 717.74219 541.03906 A 377.81604 377.81604 0 0 1 717.04102 542.49023 A 377.81604 377.81604 0 0 0 717.74219 541.03906 z M 704.55273 566.12109 A 377.81604 377.81604 0 0 1 703.7793 567.44727 A 377.81604 377.81604 0 0 0 704.55273 566.12109 z M 689.46094 590.23242 A 377.81604 377.81604 0 0 1 688.78125 591.21484 A 377.81604 377.81604 0 0 0 689.46094 590.23242 z M 672.60938 613.12891 A 377.81604 377.81604 0 0 1 672.08984 613.76562 A 377.81604 377.81604 0 0 0 672.60938 613.12891 z M 654.07422 634.70117 A 377.81604 377.81604 0 0 1 653.83008 634.95898 A 377.81604 377.81604 0 0 0 654.07422 634.70117 z M 634.17969 654.60938 A 377.81604 377.81604 0 0 1 633.92188 654.85352 A 377.81604 377.81604 0 0 0 634.17969 654.60938 z M 612.99609 672.86328 A 377.81604 377.81604 0 0 1 612.3457 673.39062 A 377.81604 377.81604 0 0 0 612.99609 672.86328 z M 590.45508 689.54688 A 377.81604 377.81604 0 0 1 589.43359 690.25391 A 377.81604 377.81604 0 0 0 590.45508 689.54688 z M 566.64258 704.57422 A 377.81604 377.81604 0 0 1 565.36328 705.32031 A 377.81604 377.81604 0 0 0 566.64258 704.57422 z M 541.71094 717.82031 A 377.81604 377.81604 0 0 1 540.26367 718.51953 A 377.81604 377.81604 0 0 0 541.71094 717.82031 z M 515.80859 729.18945 A 377.81604 377.81604 0 0 1 514.27539 729.79102 A 377.81604 377.81604 0 0 0 515.80859 729.18945 z M 489.08203 738.60547 A 377.81604 377.81604 0 0 1 487.56641 739.06836 A 377.81604 377.81604 0 0 0 489.08203 738.60547 z M 461.69141 746.00195 A 377.81604 377.81604 0 0 1 460.31445 746.30859 A 377.81604 377.81604 0 0 0 461.69141 746.00195 z M 433.73438 751.33594 A 377.81604 377.81604 0 0 1 432.74023 751.47852 A 377.81604 377.81604 0 0 0 433.73438 751.33594 z M 405.49023 754.54883 A 377.81604 377.81604 0 0 1 404.87695 754.58984 A 377.81604 377.81604 0 0 0 405.49023 754.54883 z "
     transform="scale(0.26458333)" />
  <path
     id="path2609"
     style="fill:url(#linearGradient2611);fill-opacity:1;stroke-width:0.166816;stroke-linecap:round;stroke-linejoin:round;paint-order:markers fill stroke"
     d="m 403.52781,87.041993 a 99.963826,99.963826 0 0 0 -99.9636,99.963607 99.963826,99.963826 0 0 0 99.9636,99.9636 99.963826,99.963826 0 0 0 99.96422,-99.9636 99.963826,99.963826 0 0 0 -99.96422,-99.963607 z m 0,7.278801 a 92.684906,92.684906 0 0 1 92.68481,92.684806 92.684906,92.684906 0 0 1 -92.68481,92.6848 92.684906,92.684906 0 0 1 -92.6848,-92.6848 92.684906,92.684906 0 0 1 92.6848,-92.684806 z" />
  <path
     id="path2613"
     style="fill:url(#linearGradient2748);fill-opacity:1;stroke-width:0.166816;stroke-linecap:round;stroke-linejoin:round;paint-order:markers fill stroke"
     d="m 169.56668,-26.436718 a 99.963826,99.963826 0 0 0 -0.009,5.17e-4 v 7.278626 a 92.684906,92.684906 0 0 1 0.009,-5.17e-4 92.684906,92.684906 0 0 1 92.68477,92.68478 92.684906,92.684906 0 0 1 -0.80201,11.468033 l 7.33702,0.03462 a 99.963826,99.963826 0 0 0 0.74414,-11.502657 99.963826,99.963826 0 0 0 -99.96392,-99.963406 z" />
  <path
     id="path1114"
     style="fill:url(#linearGradient1116);fill-opacity:1;stroke-width:0.166816;stroke-linecap:round;stroke-linejoin:round;paint-order:markers fill stroke"
     d="M 99.757218,4.9580078e-7 V 7.2786255 A 92.684906,92.684906 0 0 1 192.442,99.963401 92.684906,92.684906 0 0 1 99.757218,192.64819 92.684906,92.684906 0 0 1 7.0724282,99.963401 92.684906,92.684906 0 0 1 70.670098,11.987899 L 68.389108,5.0808265 A 99.963826,99.963826 0 0 0 -0.20671184,99.963401 99.963826,99.963826 0 0 0 99.757218,199.92733 99.963826,99.963826 0 0 0 199.72114,99.963401 99.963826,99.963826 0 0 0 99.757218,4.9580078e-7 Z" />
  <path
     id="path1119"
     style="fill:url(#linearGradient1125);fill-opacity:1;stroke-width:0.155254;stroke-linecap:round;stroke-linejoin:round;paint-order:markers fill stroke"
     d="m 99.757218,6.9285581 a 93.035256,93.035256 0 0 0 -29.18675,4.7507949 l 2.11328,6.39948 a 86.260844,86.260844 0 0 1 27.07347,-4.376136 z m 6.952572,0.2601924 A 93.035256,93.035256 0 0 1 120.45958,9.261151 93.035256,93.035256 0 0 0 106.70979,7.1887505 Z M 69.446015,12.072768 a 93.035256,93.035256 0 0 0 -4.92538,1.830964 93.035256,93.035256 0 0 1 4.92538,-1.830964 z m 64.300685,1.287013 a 93.035256,93.035256 0 0 1 12.52819,6.032999 93.035256,93.035256 0 0 0 -12.52819,-6.032999 z m -27.22159,0.60888 a 86.260844,86.260844 0 0 1 13.36936,2.117609 86.260844,86.260844 0 0 0 -13.36936,-2.117609 z m 13.36936,2.117609 a 86.260844,86.260844 0 0 1 12.87302,4.182796 86.260844,86.260844 0 0 0 -12.87302,-4.182796 z M 63.04028,14.549645 a 93.035256,93.035256 0 0 0 -4.783498,2.191675 93.035256,93.035256 0 0 1 4.783498,-2.191675 z m -6.186902,2.933295 a 93.035256,93.035256 0 0 0 -4.635365,2.551905 93.035256,93.035256 0 0 1 4.635365,-2.551905 z m -5.959413,3.383942 a 93.035256,93.035256 0 0 0 -4.446835,2.892897 93.035256,93.035256 0 0 1 4.446835,-2.892897 z m -5.714132,3.827858 a 93.035256,93.035256 0 0 0 -4.211171,3.20455 93.035256,93.035256 0 0 1 4.211171,-3.20455 z m -5.416904,4.241952 a 93.035256,93.035256 0 0 0 -3.959637,3.501294 93.035256,93.035256 0 0 1 3.959637,-3.501294 z m -5.068219,4.609877 a 93.035256,93.035256 0 0 0 -3.702331,3.794192 93.035256,93.035256 0 0 1 3.702331,-3.794192 z m 121.08417,0.823863 a 86.260844,86.260844 0 0 1 4.97395,4.597852 86.260844,86.260844 0 0 0 -4.97395,-4.597852 z M 29.9569,38.544088 a 93.035256,93.035256 0 0 0 -3.398371,4.037551 93.035256,93.035256 0 0 1 3.398371,-4.037551 z m -4.366999,5.350056 a 93.035256,93.035256 0 0 0 -3.068442,4.244358 93.035256,93.035256 0 0 1 3.068442,-4.244358 z m 151.036589,3.66097 a 93.035256,93.035256 0 0 1 6.95257,12.041949 93.035256,93.035256 0 0 0 -6.95257,-12.041949 z m -154.993339,1.99689 a 93.035256,93.035256 0 0 0 -2.726489,4.42375 93.035256,93.035256 0 0 1 2.726489,-4.42375 z m -3.52919,5.9421 a 93.035256,93.035256 0 0 0 -2.374916,4.57621 93.035256,93.035256 0 0 1 2.374916,-4.57621 z m -3.069404,6.167662 a 93.035256,93.035256 0 0 0 -2.023343,4.717612 93.035256,93.035256 0 0 1 2.023343,-4.717612 z m 164.417013,5.291382 a 86.260844,86.260844 0 0 1 4.18281,12.873026 86.260844,86.260844 0 0 0 -4.18281,-12.873026 z m -167.042982,1.14898 a 93.035256,93.035256 0 0 0 -1.640992,4.767149 93.035256,93.035256 0 0 1 1.640992,-4.767149 z m -2.14262,6.638994 a 93.035256,93.035256 0 0 0 -1.2595999,4.775803 93.035256,93.035256 0 0 1 1.2595999,-4.775803 z m 180.194002,4.51994 a 93.035256,93.035256 0 0 1 2.0724,13.749793 93.035256,93.035256 0 0 0 -2.0724,-13.749793 z M 8.6230536,81.542673 A 93.035256,93.035256 0 0 0 7.7424401,86.262687 93.035256,93.035256 0 0 1 8.6230536,81.542673 Z M 7.4360761,88.981481 A 93.035256,93.035256 0 0 0 6.9791772,93.093578 93.035256,93.035256 0 0 1 7.4360761,88.981481 Z M 192.53622,106.81933 a 93.035256,93.035256 0 0 1 -0.0106,0.1515 93.035256,93.035256 0 0 0 0.0106,-0.1515 z m -0.76374,6.84483 a 93.035256,93.035256 0 0 1 -0.0389,0.27126 93.035256,93.035256 0 0 0 0.0389,-0.27126 z m -8.1381,6.43652 a 86.260844,86.260844 0 0 1 -4.18281,12.8735 86.260844,86.260844 0 0 0 4.18281,-12.8735 z m 6.86262,0.36936 a 93.035256,93.035256 0 0 1 -0.0755,0.33955 93.035256,93.035256 0 0 0 0.0755,-0.33955 z m -1.78238,6.70873 a 93.035256,93.035256 0 0 1 -0.11495,0.37802 93.035256,93.035256 0 0 0 0.11495,-0.37802 z m -2.28354,6.57551 a 93.035256,93.035256 0 0 1 -0.1515,0.3862 93.035256,93.035256 0 0 0 0.1515,-0.3862 z m -2.77651,6.40236 a 93.035256,93.035256 0 0 1 -0.17266,0.35735 93.035256,93.035256 0 0 0 0.17266,-0.35735 z m -3.24784,6.17633 a 93.035256,93.035256 0 0 1 -0.19045,0.32656 93.035256,93.035256 0 0 0 0.19045,-0.32656 z m -3.71627,5.93728 a 93.035256,93.035256 0 0 1 -0.16737,0.24192 93.035256,93.035256 0 0 0 0.16737,-0.24192 z m -4.14961,5.63815 a 93.035256,93.035256 0 0 1 -0.12793,0.15678 93.035256,93.035256 0 0 0 0.12793,-0.15678 z m -4.56419,5.31206 a 93.035256,93.035256 0 0 1 -0.0601,0.0635 93.035256,93.035256 0 0 0 0.0601,-0.0635 z m -4.89893,4.90229 a 93.035256,93.035256 0 0 1 -0.0635,0.0601 93.035256,93.035256 0 0 0 0.0635,-0.0601 z m -5.21635,4.49493 a 93.035256,93.035256 0 0 1 -0.16015,0.12985 93.035256,93.035256 0 0 0 0.16015,-0.12985 z m -5.55061,4.10825 a 93.035256,93.035256 0 0 1 -0.25153,0.1741 93.035256,93.035256 0 0 0 0.25153,-0.1741 z m -5.8637,3.70041 a 93.035256,93.035256 0 0 1 -0.31503,0.18372 93.035256,93.035256 0 0 0 0.31503,-0.18372 z m -6.13929,3.26178 a 93.035256,93.035256 0 0 1 -0.35638,0.17218 93.035256,93.035256 0 0 0 0.35638,-0.17218 z m -6.37832,2.79959 a 93.035256,93.035256 0 0 1 -0.37754,0.14813 93.035256,93.035256 0 0 0 0.37754,-0.14813 z m -6.58127,2.31865 a 93.035256,93.035256 0 0 1 -0.37322,0.11398 93.035256,93.035256 0 0 0 0.37322,-0.11398 z m -6.7448,1.82134 a 93.035256,93.035256 0 0 1 -0.33908,0.0755 93.035256,93.035256 0 0 0 0.33908,-0.0755 z m -6.88428,1.31347 a 93.035256,93.035256 0 0 1 -0.24481,0.0351 93.035256,93.035256 0 0 0 0.24481,-0.0351 z m -6.95498,0.79115 a 93.035256,93.035256 0 0 1 -0.15102,0.0106 93.035256,93.035256 0 0 0 0.15102,-0.0106 z" />
  <path
     id="path1121"
     style="fill:url(#linearGradient1123);fill-opacity:1;stroke-width:0.155254;stroke-linecap:round;stroke-linejoin:round;paint-order:markers fill stroke"
     d="M 99.757218,6.9285592 V 13.702697 A 86.260844,86.260844 0 0 1 186.01795,99.963419 86.260844,86.260844 0 0 1 99.757218,186.22415 86.260844,86.260844 0 0 1 13.496481,99.963419 86.260844,86.260844 0 0 1 72.686148,18.085566 L 70.563255,11.657229 A 93.035256,93.035256 0 0 0 6.7218642,99.963419 93.035256,93.035256 0 0 0 99.757218,192.99877 93.035256,93.035256 0 0 0 192.79257,99.963419 93.035256,93.035256 0 0 0 99.757218,6.9285592 Z" />
</svg>
